<svg fill="none" height="463" viewBox="0 0 302 463" width="302" xmlns="http://www.w3.org/2000/svg" xmlns:xlink="http://www.w3.org/1999/xlink"><linearGradient id="a"><stop offset=".82" stop-color="#0b5cff" stop-opacity="0"/><stop offset=".98" stop-color="#003cb3"/></linearGradient><radialGradient id="b" cx="0" cy="0" gradientTransform="matrix(18.8757 0 0 15.7759 41.0918 49.3731)" gradientUnits="userSpaceOnUse" r="1" xlink:href="#a"/><linearGradient id="c"><stop offset=".8" stop-color="#0b5cff" stop-opacity="0"/><stop offset="1" stop-color="#71a5f1"/></linearGradient><radialGradient id="d" cx="0" cy="0" gradientTransform="matrix(18.8689 0 0 15.7702 41.0917 52.6211)" gradientUnits="userSpaceOnUse" r="1" xlink:href="#c"/><radialGradient id="e" cx="0" cy="0" gradientTransform="matrix(18.8757 0 0 15.7759 41.0918 122.373)" gradientUnits="userSpaceOnUse" r="1" xlink:href="#a"/><radialGradient id="f" cx="0" cy="0" gradientTransform="matrix(18.8689 0 0 15.7703 41.0917 125.621)" gradientUnits="userSpaceOnUse" r="1" xlink:href="#c"/><radialGradient id="g" cx="0" cy="0" gradientTransform="matrix(18.8757 0 0 15.7759 41.0918 193.373)" gradientUnits="userSpaceOnUse" r="1" xlink:href="#a"/><radialGradient id="h" cx="0" cy="0" gradientTransform="matrix(18.8689 0 0 15.7703 41.0917 196.621)" gradientUnits="userSpaceOnUse" r="1" xlink:href="#c"/><radialGradient id="i" cx="0" cy="0" gradientTransform="matrix(18.8757 0 0 15.7759 41 265.373)" gradientUnits="userSpaceOnUse" r="1" xlink:href="#a"/><radialGradient id="j" cx="0" cy="0" gradientTransform="matrix(18.8689 0 0 15.7703 40.9999 268.621)" gradientUnits="userSpaceOnUse" r="1" xlink:href="#c"/><radialGradient id="k" cx="0" cy="0" gradientTransform="matrix(18.8757 0 0 15.7759 113.273 265.373)" gradientUnits="userSpaceOnUse" r="1" xlink:href="#a"/><radialGradient id="l" cx="0" cy="0" gradientTransform="matrix(18.8689 0 0 15.7702 113.273 268.621)" gradientUnits="userSpaceOnUse" r="1" xlink:href="#c"/><radialGradient id="m" cx="0" cy="0" gradientTransform="matrix(18.8757 0 0 15.7759 41.0918 337.373)" gradientUnits="userSpaceOnUse" r="1" xlink:href="#a"/><radialGradient id="n" cx="0" cy="0" gradientTransform="matrix(18.8689 0 0 15.7703 41.0917 340.621)" gradientUnits="userSpaceOnUse" r="1" xlink:href="#c"/><radialGradient id="o" cx="0" cy="0" gradientTransform="matrix(18.8757 0 0 15.7759 113.092 337.373)" gradientUnits="userSpaceOnUse" r="1" xlink:href="#a"/><radialGradient id="p" cx="0" cy="0" gradientTransform="matrix(18.8689 0 0 15.7703 113.092 340.621)" gradientUnits="userSpaceOnUse" r="1" xlink:href="#c"/><radialGradient id="q" cx="0" cy="0" gradientTransform="matrix(18.8757 0 0 15.7759 185.092 337.373)" gradientUnits="userSpaceOnUse" r="1" xlink:href="#a"/><radialGradient id="r" cx="0" cy="0" gradientTransform="matrix(18.8689 0 0 15.7703 185.092 340.621)" gradientUnits="userSpaceOnUse" r="1" xlink:href="#c"/><radialGradient id="s" cx="0" cy="0" gradientTransform="matrix(18.8757 0 0 15.776 257 264.373)" gradientUnits="userSpaceOnUse" r="1" xlink:href="#a"/><radialGradient id="t" cx="0" cy="0" gradientTransform="matrix(18.8689 0 0 15.7703 257 267.621)" gradientUnits="userSpaceOnUse" r="1" xlink:href="#c"/><radialGradient id="u" cx="0" cy="0" gradientTransform="matrix(18.8757 0 0 15.7758 257.092 337.373)" gradientUnits="userSpaceOnUse" r="1" xlink:href="#a"/><radialGradient id="v" cx="0" cy="0" gradientTransform="matrix(18.8689 0 0 15.7702 257.092 340.621)" gradientUnits="userSpaceOnUse" r="1" xlink:href="#c"/><radialGradient id="w" cx="0" cy="0" gradientTransform="matrix(18.8757 0 0 15.7759 185 121.373)" gradientUnits="userSpaceOnUse" r="1" xlink:href="#a"/><radialGradient id="x" cx="0" cy="0" gradientTransform="matrix(18.8689 0 0 15.7702 185 124.621)" gradientUnits="userSpaceOnUse" r="1" xlink:href="#c"/><radialGradient id="y" cx="0" cy="0" gradientTransform="matrix(18.8757 0 0 15.7759 113.092 49.3731)" gradientUnits="userSpaceOnUse" r="1" xlink:href="#a"/><radialGradient id="z" cx="0" cy="0" gradientTransform="matrix(18.8689 0 0 15.7703 113.092 52.6211)" gradientUnits="userSpaceOnUse" r="1" xlink:href="#c"/><radialGradient id="A" cx="0" cy="0" gradientTransform="matrix(18.8757 0 0 15.7759 113 121.373)" gradientUnits="userSpaceOnUse" r="1" xlink:href="#a"/><radialGradient id="B" cx="0" cy="0" gradientTransform="matrix(18.8689 0 0 15.7702 113 124.621)" gradientUnits="userSpaceOnUse" r="1" xlink:href="#c"/><radialGradient id="C" cx="0" cy="0" gradientTransform="matrix(18.8757 0 0 15.7759 113 193.373)" gradientUnits="userSpaceOnUse" r="1" xlink:href="#a"/><radialGradient id="D" cx="0" cy="0" gradientTransform="matrix(18.8689 0 0 15.7702 113 196.621)" gradientUnits="userSpaceOnUse" r="1" xlink:href="#c"/><radialGradient id="E" cx="0" cy="0" gradientTransform="matrix(18.8757 0 0 15.7759 185.092 49.3731)" gradientUnits="userSpaceOnUse" r="1" xlink:href="#a"/><radialGradient id="F" cx="0" cy="0" gradientTransform="matrix(18.8689 0 0 15.7703 185.092 52.6211)" gradientUnits="userSpaceOnUse" r="1" xlink:href="#c"/><radialGradient id="G" cx="0" cy="0" gradientTransform="matrix(18.8757 0 0 15.7759 185 265.373)" gradientUnits="userSpaceOnUse" r="1" xlink:href="#a"/><radialGradient id="H" cx="0" cy="0" gradientTransform="matrix(18.8689 0 0 15.7702 185 268.621)" gradientUnits="userSpaceOnUse" r="1" xlink:href="#c"/><radialGradient id="I" cx="0" cy="0" gradientTransform="matrix(18.8757 0 0 15.7759 257.092 49.3731)" gradientUnits="userSpaceOnUse" r="1" xlink:href="#a"/><radialGradient id="J" cx="0" cy="0" gradientTransform="matrix(18.8689 0 0 15.7703 257.092 52.6211)" gradientUnits="userSpaceOnUse" r="1" xlink:href="#c"/><radialGradient id="K" cx="0" cy="0" gradientTransform="matrix(18.8757 0 0 15.7759 257 121.373)" gradientUnits="userSpaceOnUse" r="1" xlink:href="#a"/><radialGradient id="L" cx="0" cy="0" gradientTransform="matrix(18.8689 0 0 15.7702 257 124.621)" gradientUnits="userSpaceOnUse" r="1" xlink:href="#c"/><radialGradient id="M" cx="0" cy="0" gradientTransform="matrix(18.8757 0 0 15.7759 257.092 193.373)" gradientUnits="userSpaceOnUse" r="1" xlink:href="#a"/><radialGradient id="N" cx="0" cy="0" gradientTransform="matrix(18.8689 0 0 15.7703 257.092 196.621)" gradientUnits="userSpaceOnUse" r="1" xlink:href="#c"/><radialGradient id="O" cx="0" cy="0" gradientTransform="matrix(18.8757 0 0 15.7759 185 193.373)" gradientUnits="userSpaceOnUse" r="1" xlink:href="#a"/><radialGradient id="P" cx="0" cy="0" gradientTransform="matrix(18.8689 0 0 15.7703 185 196.621)" gradientUnits="userSpaceOnUse" r="1" xlink:href="#c"/><clipPath id="Q"><path d="m32.0918 42h18v18h-18z"/></clipPath><clipPath id="R"><path d="m32.0918 115h18v18h-18z"/></clipPath><clipPath id="S"><path d="m32.0918 186h18v18h-18z"/></clipPath><clipPath id="T"><path d="m32 258h18v18h-18z"/></clipPath><clipPath id="U"><path d="m104.273 258h18v18h-18z"/></clipPath><clipPath id="V"><path d="m32.0918 330h18v18h-18z"/></clipPath><clipPath id="W"><path d="m104.092 330h18v18h-18z"/></clipPath><clipPath id="X"><path d="m176.092 330h18v18h-18z"/></clipPath><clipPath id="Y"><path d="m248 257h18v18.0001h-18z"/></clipPath><clipPath id="Z"><path d="m176 114h18v18h-18z"/></clipPath><clipPath id="aa"><path d="m104.092 42h18v18h-18z"/></clipPath><clipPath id="ab"><path d="m104 114h18v18h-18z"/></clipPath><clipPath id="ac"><path d="m104 186h18v18h-18z"/></clipPath><clipPath id="ad"><path d="m176.092 42h18v18h-18z"/></clipPath><clipPath id="ae"><path d="m176 258h18v18h-18z"/></clipPath><clipPath id="af"><path d="m248.092 42h18v18h-18z"/></clipPath><clipPath id="ag"><path d="m248 114h18v18h-18z"/></clipPath><clipPath id="ah"><path d="m248.092 186h18v18h-18z"/></clipPath><clipPath id="ai"><path d="m176 186h18v18h-18z"/></clipPath><path d="m55.0918 51c0 1.4971-.1204 2.9651-.3503 4.3965-.7611 4.7386-4.5146 8.4921-9.2532 9.2532-1.4315.2299-2.8995.3503-4.3965.3503s-2.965-.1204-4.3965-.3503c-4.7386-.7611-8.4922-4.5146-9.2532-9.2532-.2299-1.4314-.3503-2.8994-.3503-4.3965s.1204-2.9651.3503-4.3965c.761-4.7386 4.5146-8.4921 9.2532-9.2532 1.4315-.2299 2.8995-.3503 4.3965-.3503s2.965.1204 4.3965.3503c4.7386.7611 8.4921 4.5146 9.2532 9.2532.2299 1.4314.3503 2.8994.3503 4.3965z" fill="#0b5cff"/><path d="m55.0918 51c0 1.4971-.1204 2.9651-.3503 4.3965-.7611 4.7386-4.5146 8.4921-9.2532 9.2532-1.4315.2299-2.8995.3503-4.3965.3503s-2.965-.1204-4.3965-.3503c-4.7386-.7611-8.4922-4.5146-9.2532-9.2532-.2299-1.4314-.3503-2.8994-.3503-4.3965s.1204-2.9651.3503-4.3965c.761-4.7386 4.5146-8.4921 9.2532-9.2532 1.4315-.2299 2.8995-.3503 4.3965-.3503s2.965.1204 4.3965.3503c4.7386.7611 8.4921 4.5146 9.2532 9.2532.2299 1.4314.3503 2.8994.3503 4.3965z" fill="url(#b)"/><path d="m55.0917 51c0 1.4971-.1204 2.9651-.3503 4.3965-.7611 4.7386-4.5146 8.4921-9.2532 9.2532-1.4315.2299-2.8994.3503-4.3965.3503-1.497 0-2.965-.1204-4.3964-.3503-4.7387-.7611-8.4922-4.5146-9.2533-9.2532-.2299-1.4315-.3502-2.8994-.3502-4.3965 0-1.497.1203-2.9651.3502-4.3966.7611-4.7385 4.5147-8.4921 9.2533-9.2532 1.4315-.2299 2.8994-.3502 4.3964-.3502 1.4971 0 2.9651.1203 4.3965.3502 4.7386.7611 8.4921 4.5147 9.2532 9.2532.2299 1.4315.3503 2.8995.3503 4.3966z" fill="url(#d)"/><g clip-path="url(#Q)"><path d="m44.0918 54.4999c0 .8283-.6716 1.5-1.5 1.5h-6.5c-1.6569 0-3-1.3432-3-3v-5.5c0-.8284.6716-1.5 1.5-1.5h6.5c1.6569 0 3 1.3431 3 3zm3.8-7.6001-2.2 1.65c-.3777.2833-.6.7279-.6 1.2v2.5c0 .4721.2223.9167.6 1.2l2.2 1.65c.4944.3708 1.2.018 1.2-.6v-7c0-.618-.7056-.9708-1.2-.6z" fill="#fff"/></g><path d="m55.0918 124c0 1.497-.1204 2.965-.3503 4.397-.7611 4.738-4.5146 8.492-9.2532 9.253-1.4315.23-2.8995.35-4.3965.35s-2.965-.12-4.3965-.35c-4.7386-.761-8.4922-4.515-9.2532-9.253-.2299-1.432-.3503-2.9-.3503-4.397s.1204-2.965.3503-4.397c.761-4.738 4.5146-8.492 9.2532-9.253 1.4315-.23 2.8995-.35 4.3965-.35s2.965.12 4.3965.35c4.7386.761 8.4921 4.515 9.2532 9.253.2299 1.432.3503 2.9.3503 4.397z" fill="#0b5cff"/><path d="m55.0918 124c0 1.497-.1204 2.965-.3503 4.397-.7611 4.738-4.5146 8.492-9.2532 9.253-1.4315.23-2.8995.35-4.3965.35s-2.965-.12-4.3965-.35c-4.7386-.761-8.4922-4.515-9.2532-9.253-.2299-1.432-.3503-2.9-.3503-4.397s.1204-2.965.3503-4.397c.761-4.738 4.5146-8.492 9.2532-9.253 1.4315-.23 2.8995-.35 4.3965-.35s2.965.12 4.3965.35c4.7386.761 8.4921 4.515 9.2532 9.253.2299 1.432.3503 2.9.3503 4.397z" fill="url(#e)"/><path d="m55.0917 124c0 1.497-.1204 2.965-.3503 4.396-.7611 4.739-4.5146 8.493-9.2532 9.254-1.4315.23-2.8994.35-4.3965.35-1.497 0-2.965-.12-4.3964-.35-4.7387-.761-8.4922-4.515-9.2533-9.254-.2299-1.431-.3502-2.899-.3502-4.396s.1203-2.965.3502-4.397c.7611-4.738 4.5147-8.492 9.2533-9.253 1.4315-.23 2.8994-.35 4.3964-.35 1.4971 0 2.9651.12 4.3965.35 4.7386.761 8.4921 4.515 9.2532 9.253.2299 1.432.3503 2.9.3503 4.397z" fill="url(#f)"/><g clip-path="url(#R)"><path d="m42.0918 116h-7c-1.1046 0-2 .895-2 2v4c0 1.105.8954 2 2 2l.0001 1.999c0 .445.5385.669.8535.354l1.9132-1.914c.2813-.281.6628-.439 1.0606-.439h3.1726c1.1046 0 2-.895 2-2v-4c0-1.105-.8954-2-2-2zm7 7.5v4c0 1.105-.8954 2-2 2l-.0001 1.999c0 .445-.5385.669-.8535.354l-1.9132-1.914c-.2813-.281-.6628-.439-1.0606-.439h-3.1726c-1.1046 0-2-.895-2-2v-1.441c0-.281.1116-.55.3102-.749.1986-.198.4679-.31.7488-.31h2.941c1.6568 0 3-1.343 3-3v-.5h2c1.1046 0 2 .895 2 2z" fill="#fff"/></g><path d="m55.0918 195c0 1.497-.1204 2.965-.3503 4.397-.7611 4.738-4.5146 8.492-9.2532 9.253-1.4315.23-2.8995.35-4.3965.35s-2.965-.12-4.3965-.35c-4.7386-.761-8.4922-4.515-9.2532-9.253-.2299-1.432-.3503-2.9-.3503-4.397s.1204-2.965.3503-4.397c.761-4.738 4.5146-8.492 9.2532-9.253 1.4315-.23 2.8995-.35 4.3965-.35s2.965.12 4.3965.35c4.7386.761 8.4921 4.515 9.2532 9.253.2299 1.432.3503 2.9.3503 4.397z" fill="#0b5cff"/><path d="m55.0918 195c0 1.497-.1204 2.965-.3503 4.397-.7611 4.738-4.5146 8.492-9.2532 9.253-1.4315.23-2.8995.35-4.3965.35s-2.965-.12-4.3965-.35c-4.7386-.761-8.4922-4.515-9.2532-9.253-.2299-1.432-.3503-2.9-.3503-4.397s.1204-2.965.3503-4.397c.761-4.738 4.5146-8.492 9.2532-9.253 1.4315-.23 2.8995-.35 4.3965-.35s2.965.12 4.3965.35c4.7386.761 8.4921 4.515 9.2532 9.253.2299 1.432.3503 2.9.3503 4.397z" fill="url(#g)"/><path d="m55.0917 195c0 1.497-.1204 2.965-.3503 4.396-.7611 4.739-4.5146 8.493-9.2532 9.254-1.4315.23-2.8994.35-4.3965.35-1.497 0-2.965-.12-4.3964-.35-4.7387-.761-8.4922-4.515-9.2533-9.254-.2299-1.431-.3502-2.899-.3502-4.396s.1203-2.965.3502-4.397c.7611-4.738 4.5147-8.492 9.2533-9.253 1.4315-.23 2.8994-.35 4.3964-.35 1.4971 0 2.9651.12 4.3965.35 4.7386.761 8.4921 4.515 9.2532 9.253.2299 1.432.3503 2.9.3503 4.397z" fill="url(#h)"/><g clip-path="url(#S)"><path d="m48.0918 198.063v1.312c0 1.443-1.1665 2.612-2.609 2.623v.002c-.0044 0-.0087-.001-.0131-.001-.0023 0-.0044.001-.0066.001v-.001c-6.2755-.011-11.361-5.088-11.3713-11.355-.0024-1.453 1.1731-2.644 2.6287-2.644h1.3143c.9678 0 1.7525.784 1.7525 1.75v1.025c0 .464-.1847.909-.5134 1.238l-.9194.918c-.1851.185-.2508.465-.1505.707.7968 1.918 2.3283 3.45 4.2467 4.249.2421.101.5238.036.7093-.15l.9135-.912c.3286-.328.7743-.512 1.2391-.512h1.0267c.9679 0 1.7525.783 1.7525 1.75z" fill="#fff"/></g><path d="m55 267c0 1.497-.1204 2.965-.3503 4.397-.7611 4.738-4.5146 8.492-9.2532 9.253-1.4315.23-2.8995.35-4.3965.35s-2.965-.12-4.3965-.35c-4.7386-.761-8.4921-4.515-9.2532-9.253-.2299-1.432-.3503-2.9-.3503-4.397s.1204-2.965.3503-4.397c.7611-4.738 4.5146-8.492 9.2532-9.253 1.4315-.23 2.8995-.35 4.3965-.35s2.965.12 4.3965.35c4.7386.761 8.4921 4.515 9.2532 9.253.2299 1.432.3503 2.9.3503 4.397z" fill="#0b5cff"/><path d="m55 267c0 1.497-.1204 2.965-.3503 4.397-.7611 4.738-4.5146 8.492-9.2532 9.253-1.4315.23-2.8995.35-4.3965.35s-2.965-.12-4.3965-.35c-4.7386-.761-8.4921-4.515-9.2532-9.253-.2299-1.432-.3503-2.9-.3503-4.397s.1204-2.965.3503-4.397c.7611-4.738 4.5146-8.492 9.2532-9.253 1.4315-.23 2.8995-.35 4.3965-.35s2.965.12 4.3965.35c4.7386.761 8.4921 4.515 9.2532 9.253.2299 1.432.3503 2.9.3503 4.397z" fill="url(#i)"/><path d="m54.9999 267c0 1.497-.1204 2.965-.3503 4.396-.7611 4.739-4.5146 8.493-9.2532 9.254-1.4315.23-2.8994.35-4.3965.35-1.497 0-2.965-.12-4.3964-.35-4.7387-.761-8.4922-4.515-9.2533-9.254-.2299-1.431-.3502-2.899-.3502-4.396s.1203-2.965.3502-4.397c.7612-4.738 4.5147-8.492 9.2533-9.253 1.4315-.23 2.8994-.35 4.3964-.35 1.4971 0 2.9651.12 4.3965.35 4.7386.761 8.4921 4.515 9.2532 9.253.2299 1.432.3503 2.9.3503 4.397z" fill="url(#j)"/><g clip-path="url(#T)"><path d="m41.6506 271.211-1.236.618c-.5528.276-.5528 1.065 0 1.342l1.236.618c.2777.139.584.211.8945.211h5.4549c.5523 0 1-.448 1-1v-1c0-.552-.4477-1-1-1h-5.455c-.3105 0-.6167.072-.8944.211zm7.3494-8.211v6.999h-6.455c-.4632 0-.9271.11-1.3414.317l-1.2362.618c-.5966.298-.9673.898-.9674 1.565v.501h-4c-1.1045 0-2-.895-2-2v-8c0-1.105.8955-2 2-2h12c1.1046 0 2 .895 2 2z" fill="#fff"/></g><path d="m127.273 267c0 1.497-.12 2.965-.35 4.397-.761 4.738-4.514 8.492-9.253 9.253-1.432.23-2.9.35-4.397.35s-2.965-.12-4.396-.35c-4.739-.761-8.492-4.515-9.2533-9.253-.2299-1.432-.3503-2.9-.3503-4.397s.1204-2.965.3503-4.397c.7613-4.738 4.5143-8.492 9.2533-9.253 1.431-.23 2.899-.35 4.396-.35s2.965.12 4.397.35c4.739.761 8.492 4.515 9.253 9.253.23 1.432.35 2.9.35 4.397z" fill="#0b5cff"/><path d="m127.273 267c0 1.497-.12 2.965-.35 4.397-.761 4.738-4.514 8.492-9.253 9.253-1.432.23-2.9.35-4.397.35s-2.965-.12-4.396-.35c-4.739-.761-8.492-4.515-9.2533-9.253-.2299-1.432-.3503-2.9-.3503-4.397s.1204-2.965.3503-4.397c.7613-4.738 4.5143-8.492 9.2533-9.253 1.431-.23 2.899-.35 4.396-.35s2.965.12 4.397.35c4.739.761 8.492 4.515 9.253 9.253.23 1.432.35 2.9.35 4.397z" fill="url(#k)"/><path d="m127.273 267c0 1.497-.12 2.965-.35 4.396-.761 4.739-4.515 8.493-9.253 9.254-1.432.23-2.9.35-4.397.35s-2.965-.12-4.396-.35c-4.739-.761-8.492-4.515-9.2533-9.254-.2299-1.431-.3503-2.899-.3503-4.396s.1204-2.965.3503-4.397c.7613-4.738 4.5143-8.492 9.2533-9.253 1.431-.23 2.899-.35 4.396-.35s2.965.12 4.397.35c4.738.761 8.492 4.515 9.253 9.253.23 1.432.35 2.9.35 4.397z" fill="url(#l)"/><g clip-path="url(#U)"><path d="m119.273 261h-12c-1.103 0-2 .897-2 2v8c0 1.103.897 2 2 2h12c1.103 0 2-.897 2-2v-8c0-1.103-.897-2-2-2zm-8.999 2.5h.5c.276 0 .5.223.5.5 0 .276-.224.5-.5.5h-.5c-.277 0-.5-.224-.5-.5 0-.277.223-.5.5-.5zm-2.5 0h.5c.276 0 .5.223.5.5 0 .276-.224.5-.5.5h-.5c-.277 0-.5-.224-.5-.5 0-.277.223-.5.5-.5zm0 3h6c.276 0 .5.223.5.5 0 .276-.224.5-.5.5h-6c-.277 0-.5-.224-.5-.5 0-.277.223-.5.5-.5zm.5 4h-.5c-.277 0-.5-.224-.5-.5 0-.277.223-.5.5-.5h.5c.276 0 .5.223.5.5 0 .276-.224.5-.5.5zm8 0h-6c-.277 0-.5-.224-.5-.5 0-.277.223-.5.5-.5h6c.276 0 .5.223.5.5 0 .276-.224.5-.5.5zm0-3h-.5c-.277 0-.5-.224-.5-.5 0-.277.223-.5.5-.5h.5c.276 0 .5.223.5.5 0 .276-.224.5-.5.5zm2.5 3h-.5c-.277 0-.5-.224-.5-.5 0-.277.223-.5.5-.5h.5c.276 0 .5.223.5.5 0 .276-.224.5-.5.5zm0-3h-.5c-.277 0-.5-.224-.5-.5 0-.277.223-.5.5-.5h.5c.276 0 .5.223.5.5 0 .276-.224.5-.5.5zm0-3h-6c-.277 0-.5-.224-.5-.5 0-.277.223-.5.5-.5h6c.276 0 .5.223.5.5 0 .276-.224.5-.5.5z" fill="#fff"/></g><path d="m55.0918 339c0 1.497-.1204 2.965-.3503 4.397-.761 4.738-4.5146 8.492-9.2532 9.253-1.4315.23-2.8995.35-4.3965.35s-2.965-.12-4.3965-.35c-4.7386-.761-8.4922-4.515-9.2532-9.253-.2299-1.432-.3503-2.9-.3503-4.397s.1204-2.965.3503-4.397c.761-4.738 4.5146-8.492 9.2532-9.253 1.4315-.23 2.8995-.35 4.3965-.35s2.965.12 4.3965.35c4.7386.761 8.4922 4.515 9.2532 9.253.2299 1.432.3503 2.9.3503 4.397z" fill="#0b5cff"/><path d="m55.0918 339c0 1.497-.1204 2.965-.3503 4.397-.761 4.738-4.5146 8.492-9.2532 9.253-1.4315.23-2.8995.35-4.3965.35s-2.965-.12-4.3965-.35c-4.7386-.761-8.4922-4.515-9.2532-9.253-.2299-1.432-.3503-2.9-.3503-4.397s.1204-2.965.3503-4.397c.761-4.738 4.5146-8.492 9.2532-9.253 1.4315-.23 2.8995-.35 4.3965-.35s2.965.12 4.3965.35c4.7386.761 8.4922 4.515 9.2532 9.253.2299 1.432.3503 2.9.3503 4.397z" fill="url(#m)"/><path d="m55.0917 339c0 1.497-.1204 2.965-.3503 4.396-.7611 4.739-4.5146 8.493-9.2532 9.254-1.4315.23-2.8994.35-4.3964.35-1.4971 0-2.9651-.12-4.3965-.35-4.7387-.761-8.4922-4.515-9.2533-9.254-.2299-1.431-.3502-2.899-.3502-4.396s.1203-2.965.3502-4.397c.7612-4.738 4.5147-8.492 9.2533-9.253 1.4315-.23 2.8994-.35 4.3965-.35 1.497 0 2.965.12 4.3964.35 4.7386.761 8.4922 4.515 9.2532 9.253.2299 1.432.3503 2.9.3503 4.397z" fill="url(#n)"/><g clip-path="url(#V)"><path d="m49.0918 336.273v6.727c0 1.105-.8954 2-2 2h-12c-1.1046 0-2-.895-2-2v-6.727l5.837 4.586c.6367.501 1.3999.752 2.1631.752s1.5264-.251 2.1631-.751zm-9.5449 3.8c.9092.717 2.1807.716 3.0899.001l6.455-5.074c0-1.104-.8954-2-2-2h-12c-1.1046 0-2 .895-2 2z" fill="#fff"/></g><path d="m127.092 339c0 1.497-.121 2.965-.35 4.397-.762 4.738-4.515 8.492-9.254 9.253-1.431.23-2.899.35-4.396.35s-2.965-.12-4.397-.35c-4.738-.761-8.492-4.515-9.2529-9.253-.2299-1.432-.3503-2.9-.3503-4.397s.1204-2.965.3503-4.397c.7609-4.738 4.5149-8.492 9.2529-9.253 1.432-.23 2.9-.35 4.397-.35s2.965.12 4.396.35c4.739.761 8.492 4.515 9.254 9.253.229 1.432.35 2.9.35 4.397z" fill="#0b5cff"/><path d="m127.092 339c0 1.497-.121 2.965-.35 4.397-.762 4.738-4.515 8.492-9.254 9.253-1.431.23-2.899.35-4.396.35s-2.965-.12-4.397-.35c-4.738-.761-8.492-4.515-9.2529-9.253-.2299-1.432-.3503-2.9-.3503-4.397s.1204-2.965.3503-4.397c.7609-4.738 4.5149-8.492 9.2529-9.253 1.432-.23 2.9-.35 4.397-.35s2.965.12 4.396.35c4.739.761 8.492 4.515 9.254 9.253.229 1.432.35 2.9.35 4.397z" fill="url(#o)"/><path d="m127.092 339c0 1.497-.121 2.965-.351 4.396-.761 4.739-4.514 8.493-9.253 9.254-1.431.23-2.899.35-4.396.35s-2.965-.12-4.397-.35c-4.738-.761-8.492-4.515-9.253-9.254-.2299-1.431-.3502-2.899-.3502-4.396s.1203-2.965.3502-4.397c.761-4.738 4.515-8.492 9.253-9.253 1.432-.23 2.9-.35 4.397-.35s2.965.12 4.396.35c4.739.761 8.492 4.515 9.253 9.253.23 1.432.351 2.9.351 4.397z" fill="url(#p)"/><g clip-path="url(#W)"><path d="m116.833 335.259c-.746-2.464-3.033-4.259-5.741-4.259-3.314 0-6 2.686-6 6 0 2.708 1.794 4.995 4.258 5.741.747 2.464 3.034 4.259 5.742 4.259 3.314 0 6-2.686 6-6 0-2.708-1.795-4.995-4.259-5.741zm.259 5.241c0 1.381-1.12 2.5-2.5 2.5h-3c-1.381 0-2.5-1.119-2.5-2.5v-3c0-1.381 1.119-2.5 2.5-2.5h3c1.38 0 2.5 1.119 2.5 2.5zm-4-1.5c.759 0 1.374-.616 1.374-1.375s-.615-1.375-1.374-1.375c-.76 0-1.376.616-1.376 1.375s.616 1.375 1.376 1.375zm0 .688c-1.429 0-2.5.615-2.5 1.375 0 .379.369.687.714.687h3.572c.345 0 .714-.308.714-.687 0-.76-1.071-1.375-2.5-1.375z" fill="#fff"/></g><path d="m199.092 339c0 1.497-.121 2.965-.35 4.397-.762 4.738-4.515 8.492-9.254 9.253-1.431.23-2.899.35-4.396.35s-2.965-.12-4.397-.35c-4.738-.761-8.492-4.515-9.253-9.253-.23-1.432-.35-2.9-.35-4.397s.12-2.965.35-4.397c.761-4.738 4.515-8.492 9.253-9.253 1.432-.23 2.9-.35 4.397-.35s2.965.12 4.396.35c4.739.761 8.492 4.515 9.254 9.253.229 1.432.35 2.9.35 4.397z" fill="#0b5cff"/><path d="m199.092 339c0 1.497-.121 2.965-.35 4.397-.762 4.738-4.515 8.492-9.254 9.253-1.431.23-2.899.35-4.396.35s-2.965-.12-4.397-.35c-4.738-.761-8.492-4.515-9.253-9.253-.23-1.432-.35-2.9-.35-4.397s.12-2.965.35-4.397c.761-4.738 4.515-8.492 9.253-9.253 1.432-.23 2.9-.35 4.397-.35s2.965.12 4.396.35c4.739.761 8.492 4.515 9.254 9.253.229 1.432.35 2.9.35 4.397z" fill="url(#q)"/><path d="m199.092 339c0 1.497-.121 2.965-.351 4.396-.761 4.739-4.514 8.493-9.253 9.254-1.431.23-2.899.35-4.396.35s-2.965-.12-4.397-.35c-4.738-.761-8.492-4.515-9.253-9.254-.23-1.431-.35-2.899-.35-4.396s.12-2.965.35-4.397c.761-4.738 4.515-8.492 9.253-9.253 1.432-.23 2.9-.35 4.397-.35s2.965.12 4.396.35c4.739.761 8.492 4.515 9.253 9.253.23 1.432.351 2.9.351 4.397z" fill="url(#r)"/><g clip-path="url(#X)"><path d="m188.092 337.75c-2.486 0-4.5 2.015-4.5 4.5s2.014 4.5 4.5 4.5c2.485 0 4.5-2.015 4.5-4.5s-2.015-4.5-4.5-4.5zm1.767 6.268c-.097.098-.225.147-.353.147s-.256-.049-.354-.147l-1.414-1.415c-.094-.093-.146-.22-.146-.353v-2.5c0-.277.223-.5.5-.5.276 0 .5.223.5.5v2.293l1.267 1.268c.196.196.196.512 0 .707zm-2.017-9.268c-.277 0-.5-.224-.5-.5v-3c0-.276.223-.5.5-.5.276 0 .5.224.5.5v3c0 .276-.224.5-.5.5zm-5.5 0c-.277 0-.5-.224-.5-.5v-3c0-.276.223-.5.5-.5.276 0 .5.224.5.5v3c0 .276-.224.5-.5.5zm7.25-2.5h-.25v2c0 .828-.672 1.5-1.5 1.5s-1.5-.672-1.5-1.5v-2h-2.5v2c0 .828-.672 1.5-1.5 1.5s-1.5-.672-1.5-1.5v-2h-.25c-1.657 0-3 1.343-3 3v8c0 1.657 1.343 3 3 3h2.816c.276 0 .5-.224.5-.5s-.224-.5-.5-.5h-2.816c-1.105 0-2-.896-2-2v-4.5c0-1.104.895-2 2-2h9c.739 0 1.377.405 1.723 1.001.041.072.099.131.164.182.005.004.009.007.014.011.445.351 1.099.027 1.099-.539v-2.155c0-1.657-1.343-3-3-3z" fill="#fff"/></g><path d="m271 266c0 1.497-.12 2.965-.35 4.397-.761 4.738-4.515 8.492-9.254 9.253-1.431.23-2.899.35-4.396.35s-2.965-.12-4.396-.35c-4.739-.761-8.493-4.515-9.254-9.253-.23-1.432-.35-2.9-.35-4.397s.12-2.965.35-4.396c.761-4.739 4.515-8.493 9.254-9.254 1.431-.23 2.899-.35 4.396-.35s2.965.12 4.396.35c4.739.761 8.493 4.515 9.254 9.254.23 1.431.35 2.899.35 4.396z" fill="#0b5cff"/><path d="m271 266c0 1.497-.12 2.965-.35 4.397-.761 4.738-4.515 8.492-9.254 9.253-1.431.23-2.899.35-4.396.35s-2.965-.12-4.396-.35c-4.739-.761-8.493-4.515-9.254-9.253-.23-1.432-.35-2.9-.35-4.397s.12-2.965.35-4.396c.761-4.739 4.515-8.493 9.254-9.254 1.431-.23 2.899-.35 4.396-.35s2.965.12 4.396.35c4.739.761 8.493 4.515 9.254 9.254.23 1.431.35 2.899.35 4.396z" fill="url(#s)"/><path d="m271 266c0 1.497-.12 2.965-.35 4.397-.762 4.738-4.515 8.492-9.254 9.253-1.431.23-2.899.35-4.396.35s-2.965-.12-4.397-.35c-4.738-.761-8.492-4.515-9.253-9.253-.23-1.432-.35-2.9-.35-4.397s.12-2.965.35-4.397c.761-4.738 4.515-8.492 9.253-9.253 1.432-.23 2.9-.35 4.397-.35s2.965.12 4.396.35c4.739.761 8.493 4.515 9.254 9.253.23 1.432.35 2.9.35 4.397z" fill="url(#t)"/><g clip-path="url(#Y)"><path d="m262 259.125h-10c-1.657 0-3 1.343-3 3v8c0 1.657 1.343 3 3 3h10c1.657 0 3-1.343 3-3v-8c0-1.657-1.343-3-3-3zm-5.078 5.107-1.459-.229c-.218-.035-.397-.188-.463-.397l-.471-1.475c-.16-.5.377-.937.837-.68l4.337 2.419c.396.221.396.789 0 1.01l-4.337 2.419c-.46.257-.997-.18-.837-.68l.47-1.475c.067-.209.246-.362.464-.397l1.459-.229c.163-.026.163-.26 0-.286zm5.078 6.393h-6.107c-.193.441-.631.75-1.143.75s-.949-.309-1.143-.75h-1.607c-.276 0-.5-.224-.5-.5s.224-.5.5-.5h1.607c.194-.441.631-.75 1.143-.75s.95.309 1.143.75h6.107c.276 0 .5.224.5.5s-.224.5-.5.5z" fill="#fff"/></g><path d="m271.092 339c0 1.497-.121 2.965-.35 4.396-.762 4.739-4.515 8.493-9.254 9.254-1.431.229-2.899.35-4.396.35s-2.965-.121-4.397-.35c-4.738-.761-8.492-4.515-9.253-9.254-.23-1.431-.35-2.899-.35-4.396s.12-2.965.35-4.397c.761-4.738 4.515-8.492 9.253-9.253 1.432-.23 2.9-.35 4.397-.35s2.965.12 4.396.35c4.739.761 8.492 4.515 9.254 9.253.229 1.432.35 2.9.35 4.397z" fill="#0b5cff"/><path d="m271.092 339c0 1.497-.121 2.965-.35 4.396-.762 4.739-4.515 8.493-9.254 9.254-1.431.229-2.899.35-4.396.35s-2.965-.121-4.397-.35c-4.738-.761-8.492-4.515-9.253-9.254-.23-1.431-.35-2.899-.35-4.396s.12-2.965.35-4.397c.761-4.738 4.515-8.492 9.253-9.253 1.432-.23 2.9-.35 4.397-.35s2.965.12 4.396.35c4.739.761 8.492 4.515 9.254 9.253.229 1.432.35 2.9.35 4.397z" fill="url(#u)"/><path d="m271.092 339c0 1.497-.121 2.965-.351 4.396-.761 4.739-4.514 8.493-9.253 9.254-1.431.229-2.899.35-4.396.35s-2.965-.121-4.397-.35c-4.738-.761-8.492-4.515-9.253-9.254-.23-1.431-.35-2.899-.35-4.396s.12-2.965.35-4.397c.761-4.738 4.515-8.492 9.253-9.253 1.432-.23 2.9-.35 4.397-.35s2.965.12 4.396.35c4.739.761 8.492 4.515 9.253 9.253.23 1.432.351 2.9.351 4.397z" fill="url(#v)"/><path clip-rule="evenodd" d="m262.89 340.979c.259.579.937.845 1.516.586.578-.259.845-.929.586-1.5l-2.345-5.369c-.252-.586-.929-.845-1.508-.594-.587.252-.846.929-.594 1.508zm-3.937 4.272c.251.579.929.845 1.508.594.571-.251.838-.929.594-1.508l-4.196-9.648c-.251-.579-.929-.846-1.508-.594-.579.251-.845.929-.594 1.507zm-4.287.594c.282-.122.495-.35.609-.632s.107-.602-.015-.876l-2.369-5.46c-.251-.579-.929-.845-1.507-.594-.579.251-.846.929-.594 1.508l2.368 5.46c.251.579.929.845 1.508.594zm-4.448-11.431c-.67 0-1.218.549-1.218 1.219 0 .678.548 1.218 1.218 1.218.671 0 1.219-.548 1.219-1.218s-.548-1.219-1.219-1.219z" fill="#fff" fill-rule="evenodd"/><path d="m199 123c0 1.497-.12 2.965-.35 4.397-.761 4.738-4.515 8.492-9.254 9.253-1.431.23-2.899.35-4.396.35s-2.965-.12-4.396-.35c-4.739-.761-8.493-4.515-9.254-9.253-.23-1.432-.35-2.9-.35-4.397s.12-2.965.35-4.397c.761-4.738 4.515-8.492 9.254-9.253 1.431-.23 2.899-.35 4.396-.35s2.965.12 4.396.35c4.739.761 8.493 4.515 9.254 9.253.23 1.432.35 2.9.35 4.397z" fill="#0b5cff"/><path d="m199 123c0 1.497-.12 2.965-.35 4.397-.761 4.738-4.515 8.492-9.254 9.253-1.431.23-2.899.35-4.396.35s-2.965-.12-4.396-.35c-4.739-.761-8.493-4.515-9.254-9.253-.23-1.432-.35-2.9-.35-4.397s.12-2.965.35-4.397c.761-4.738 4.515-8.492 9.254-9.253 1.431-.23 2.899-.35 4.396-.35s2.965.12 4.396.35c4.739.761 8.493 4.515 9.254 9.253.23 1.432.35 2.9.35 4.397z" fill="url(#w)"/><path d="m199 123c0 1.497-.12 2.965-.35 4.396-.761 4.739-4.515 8.493-9.254 9.254-1.431.23-2.899.35-4.396.35s-2.965-.12-4.397-.35c-4.738-.761-8.492-4.515-9.253-9.254-.23-1.431-.35-2.899-.35-4.396s.12-2.965.35-4.397c.761-4.738 4.515-8.492 9.253-9.253 1.432-.23 2.9-.35 4.397-.35s2.965.12 4.396.35c4.739.761 8.493 4.515 9.254 9.253.23 1.432.35 2.9.35 4.397z" fill="url(#x)"/><g clip-path="url(#Z)"><path d="m192.605 121.552c.214-.058.395-.261.395-.483v-2.319c0-.828-.672-1.5-1.5-1.5h-13c-.828 0-1.5.672-1.5 1.5v2.319c0 .222.181.425.395.483.637.174 1.105.756 1.105 1.448 0 .691-.468 1.274-1.105 1.447-.214.058-.395.262-.395.484v2.319c0 .828.672 1.5 1.5 1.5h13c.828 0 1.5-.672 1.5-1.5v-2.319c0-.222-.181-.425-.395-.484-.637-.173-1.105-.756-1.105-1.447 0-.692.468-1.274 1.105-1.448zm-9.396-1.552c.828 0 1.499.672 1.499 1.5s-.671 1.5-1.499 1.5c-.829 0-1.501-.672-1.501-1.5s.672-1.5 1.501-1.5zm1.964 6h-3.929c-.38 0-.785-.336-.785-.75 0-.828 1.177-1.5 2.75-1.5 1.571 0 2.75.672 2.75 1.5 0 .414-.407.75-.786.75zm.827-3.75c0-.69.56-1.25 1.25-1.25s1.25.56 1.25 1.25-.56 1.25-1.25 1.25-1.25-.56-1.25-1.25zm2.887 3.75h-2.114c.115-.23.186-.482.186-.75 0-.393-.125-.753-.337-1.074.199-.03.407-.051.628-.051 1.31 0 2.292.56 2.292 1.25 0 .345-.338.625-.655.625z" fill="#fff"/></g><path d="m127.092 51c0 1.4971-.121 2.9651-.35 4.3965-.762 4.7386-4.515 8.4921-9.254 9.2532-1.431.2299-2.899.3503-4.396.3503s-2.965-.1204-4.397-.3503c-4.738-.7611-8.492-4.5146-9.2529-9.2532-.2299-1.4314-.3503-2.8994-.3503-4.3965s.1204-2.9651.3503-4.3965c.7609-4.7386 4.5149-8.4921 9.2529-9.2532 1.432-.2299 2.9-.3503 4.397-.3503s2.965.1204 4.396.3503c4.739.7611 8.492 4.5146 9.254 9.2532.229 1.4314.35 2.8994.35 4.3965z" fill="#0b5cff"/><path d="m127.092 51c0 1.4971-.121 2.9651-.35 4.3965-.762 4.7386-4.515 8.4921-9.254 9.2532-1.431.2299-2.899.3503-4.396.3503s-2.965-.1204-4.397-.3503c-4.738-.7611-8.492-4.5146-9.2529-9.2532-.2299-1.4314-.3503-2.8994-.3503-4.3965s.1204-2.9651.3503-4.3965c.7609-4.7386 4.5149-8.4921 9.2529-9.2532 1.432-.2299 2.9-.3503 4.397-.3503s2.965.1204 4.396.3503c4.739.7611 8.492 4.5146 9.254 9.2532.229 1.4314.35 2.8994.35 4.3965z" fill="url(#y)"/><path d="m127.092 51c0 1.4971-.121 2.9651-.351 4.3965-.761 4.7386-4.514 8.4922-9.253 9.2532-1.431.2299-2.899.3503-4.396.3503s-2.965-.1204-4.397-.3503c-4.738-.761-8.492-4.5146-9.253-9.2532-.2299-1.4314-.3502-2.8994-.3502-4.3965 0-1.497.1203-2.9651.3502-4.3966.761-4.7385 4.515-8.4921 9.253-9.2532 1.432-.2299 2.9-.3502 4.397-.3502s2.965.1203 4.396.3502c4.739.7611 8.492 4.5147 9.253 9.2532.23 1.4315.351 2.8995.351 4.3966z" fill="url(#z)"/><g clip-path="url(#aa)"><path d="m119.603 54.3295.888 3.5494c.068.2676-.096.5391-.364.6065-.04.0097-.081.0146-.121.0146-.224 0-.428-.1514-.485-.3789l-.905-3.6212h-2.024c-.551 0-1 .4483-1 1.0001v2.5c0 .2764-.224.5-.5.5-.277 0-.5-.2236-.5-.5v-2.5c0-1.1026.897-2.0001 2-2.0001h2.414c.115 0 .215-.0771.242-.1884l.859-3.4327c.066-.2686.339-.4307.606-.3643.268.0674.431.3389.364.6065l-.859 3.4327c-.086.3459-.319.6125-.615.7758zm-8.011 1.1705v2.5c0 .2764-.224.5-.5.5-.277 0-.5-.2236-.5-.5v-2.5c0-.5518-.449-1.0001-1-1.0001h-2.024l-.906 3.6212c-.056.2275-.26.3789-.484.3789-.04 0-.081-.0049-.122-.0147-.268-.0673-.431-.3388-.364-.6064l.888-3.5494c-.295-.1636-.528-.4299-.615-.7759l-.858-3.4326c-.067-.2676.096-.5391.364-.6065.266-.0654.539.0957.606.3643l.858 3.4326c.028.1114.128.1885.243.1885h2.414c1.103 0 2 .8975 2 2.0001zm5.5-12h-8c-1.103 0-2 .8975-2 2v4c0 1.1025.897 2 2 2h8c1.102 0 2-.8975 2-2v-4c0-1.1025-.898-2-2-2zm-4 1.2502c.759 0 1.374.6157 1.374 1.3749 0 .7595-.615 1.3751-1.374 1.3751-.76 0-1.376-.6156-1.376-1.3751 0-.7592.616-1.3749 1.376-1.3749zm1.786 5.5h-3.572c-.345 0-.714-.3078-.714-.6875 0-.7593 1.071-1.375 2.5-1.375s2.5.6157 2.5 1.375c0 .3797-.369.6875-.714.6875z" fill="#fff"/></g><path d="m127 123c0 1.497-.12 2.965-.35 4.397-.761 4.738-4.515 8.492-9.254 9.253-1.431.23-2.899.35-4.396.35s-2.965-.12-4.396-.35c-4.739-.761-8.493-4.515-9.2537-9.253-.2299-1.432-.3503-2.9-.3503-4.397s.1204-2.965.3503-4.397c.7607-4.738 4.5147-8.492 9.2537-9.253 1.431-.23 2.899-.35 4.396-.35s2.965.12 4.396.35c4.739.761 8.493 4.515 9.254 9.253.23 1.432.35 2.9.35 4.397z" fill="#0b5cff"/><path d="m127 123c0 1.497-.12 2.965-.35 4.397-.761 4.738-4.515 8.492-9.254 9.253-1.431.23-2.899.35-4.396.35s-2.965-.12-4.396-.35c-4.739-.761-8.493-4.515-9.2537-9.253-.2299-1.432-.3503-2.9-.3503-4.397s.1204-2.965.3503-4.397c.7607-4.738 4.5147-8.492 9.2537-9.253 1.431-.23 2.899-.35 4.396-.35s2.965.12 4.396.35c4.739.761 8.493 4.515 9.254 9.253.23 1.432.35 2.9.35 4.397z" fill="url(#A)"/><path d="m127 123c0 1.497-.12 2.965-.35 4.396-.761 4.739-4.515 8.493-9.254 9.254-1.431.23-2.899.35-4.396.35s-2.965-.12-4.397-.35c-4.738-.761-8.492-4.515-9.2528-9.254-.2299-1.431-.3502-2.899-.3502-4.396s.1203-2.965.3502-4.397c.7608-4.738 4.5148-8.492 9.2528-9.253 1.432-.23 2.9-.35 4.397-.35s2.965.12 4.396.35c4.739.761 8.493 4.515 9.254 9.253.23 1.432.35 2.9.35 4.397z" fill="url(#B)"/><g clip-path="url(#ab)"><path d="m119.5 115c-.651 0-1.206.418-1.412.999h-4.088c-.827 0-1.5.673-1.5 1.5v1.501h-3.5c-1.105 0-2 .895-2 2v4c0 1.105.895 2 2 2h3.5v1.5c0 .276-.224.5-.5.5h-4.087c-.207-.582-.761-1-1.413-1-.827 0-1.5.673-1.5 1.5s.673 1.5 1.5 1.5c.652 0 1.206-.418 1.413-1h4.087c.827 0 1.5-.673 1.5-1.5v-1.5h3.5c1.105 0 2-.895 2-2v-4c0-1.105-.895-2-2-2h-3.5v-1.501c0-.275.224-.5.5-.5h4.087c.207.582.761 1.001 1.413 1.001.827 0 1.5-.673 1.5-1.5s-.673-1.5-1.5-1.5zm-13 15c-.276 0-.5-.224-.5-.5s.224-.5.5-.5.5.224.5.5-.224.5-.5.5zm13-13c-.276 0-.5-.224-.5-.5s.224-.5.5-.5.5.224.5.5-.224.5-.5.5zm-6.5 3.251c.759 0 1.374.616 1.374 1.375 0 .76-.615 1.375-1.374 1.375-.76 0-1.376-.615-1.376-1.375 0-.759.616-1.375 1.376-1.375zm1.786 5.5h-3.572c-.345 0-.714-.308-.714-.687 0-.76 1.071-1.375 2.5-1.375s2.5.615 2.5 1.375c0 .379-.369.687-.714.687z" fill="#fff"/></g><path d="m127 195c0 1.497-.12 2.965-.35 4.397-.761 4.738-4.515 8.492-9.254 9.253-1.431.23-2.899.35-4.396.35s-2.965-.12-4.396-.35c-4.739-.761-8.493-4.515-9.2537-9.253-.2299-1.432-.3503-2.9-.3503-4.397s.1204-2.965.3503-4.397c.7607-4.738 4.5147-8.492 9.2537-9.253 1.431-.23 2.899-.35 4.396-.35s2.965.12 4.396.35c4.739.761 8.493 4.515 9.254 9.253.23 1.432.35 2.9.35 4.397z" fill="#0b5cff"/><path d="m127 195c0 1.497-.12 2.965-.35 4.397-.761 4.738-4.515 8.492-9.254 9.253-1.431.23-2.899.35-4.396.35s-2.965-.12-4.396-.35c-4.739-.761-8.493-4.515-9.2537-9.253-.2299-1.432-.3503-2.9-.3503-4.397s.1204-2.965.3503-4.397c.7607-4.738 4.5147-8.492 9.2537-9.253 1.431-.23 2.899-.35 4.396-.35s2.965.12 4.396.35c4.739.761 8.493 4.515 9.254 9.253.23 1.432.35 2.9.35 4.397z" fill="url(#C)"/><path d="m127 195c0 1.497-.12 2.965-.35 4.396-.761 4.739-4.515 8.493-9.254 9.254-1.431.23-2.899.35-4.396.35s-2.965-.12-4.397-.35c-4.738-.761-8.492-4.515-9.2528-9.254-.2299-1.431-.3502-2.899-.3502-4.396s.1203-2.965.3502-4.397c.7608-4.738 4.5148-8.492 9.2528-9.253 1.432-.23 2.9-.35 4.397-.35s2.965.12 4.396.35c4.739.761 8.493 4.515 9.254 9.253.23 1.432.35 2.9.35 4.397z" fill="url(#D)"/><g clip-path="url(#ac)"><path d="m121 194.997v3c0-.001 0 0 0 0v.002c0 .552-.448 1-1 1h-5.5c-.552 0-1-.448-1-1v-3-.002c0-.554.447-1 1-1h5.5c.553 0 1 .446 1 1zm-9.111-.919c-.119-.051-.251-.079-.389-.079h-5.5c-.276 0-.526.112-.707.293-.015.015-.021.036-.035.052-.156.176-.258.402-.258.655v3c0 .138.028.269.079.389.151.359.507.612.921.612h.524c.276 0 .5-.224.5-.5 0-.069-.014-.135-.04-.195-.075-.18-.253-.306-.461-.306h-.523v-2.999h5.5v2.629c0 .069.014.135.039.195.076.18.253.306.461.306.277 0 .5-.223.5-.5v-2.63c0-.415-.251-.77-.611-.922zm-.389-6.078h-5.5c-.537 0-.966.424-.99.955-.001.016-.01.029-.01.045v3c0 .015.008.027.009.042.023.533.453.958.991.958h5.5c.554 0 1-.447 1-1v-3c0-.553-.446-1-1-1zm8.5 0h-5.5c-.537 0-.966.424-.991.955 0 .016-.009.029-.009.045v3c0 .015.008.027.009.042.023.533.453.958.991.958h5.5c.553 0 1-.447 1-1v-3c0-.553-.447-1-1-1zm-8.06 10.957h.002.001zm.002 0c-.309.001-.559.25-.559.56v-.56c0-.31-.25-.56-.559-.56-.31 0-.56.25-.56.56v-.28c0-.31-.25-.56-.561-.56-.31 0-.56.25-.56.56v-1.964c0-.31-.25-.559-.559-.559-.31 0-.56.249-.56.559v3.22c0 .174-.097.317-.254.397-.16.08-.333.047-.46-.063-.523-.46-.953-.73-1.223-.764-.3-.033-.587.11-.587.43 0 .11.047.207.144.304.236.19.43.366.586.523.46.447.874.97 1.27 1.62.62 1.017 1.7 1.62 2.89 1.62 1.167 0 2.11-.947 2.11-2.11v-2.373c0-.31-.249-.559-.558-.56z" fill="#fff"/></g><path d="m199.092 51c0 1.4971-.121 2.9651-.35 4.3965-.762 4.7386-4.515 8.4921-9.254 9.2532-1.431.2299-2.899.3503-4.396.3503s-2.965-.1204-4.397-.3503c-4.738-.7611-8.492-4.5146-9.253-9.2532-.23-1.4314-.35-2.8994-.35-4.3965s.12-2.9651.35-4.3965c.761-4.7386 4.515-8.4921 9.253-9.2532 1.432-.2299 2.9-.3503 4.397-.3503s2.965.1204 4.396.3503c4.739.7611 8.492 4.5146 9.254 9.2532.229 1.4314.35 2.8994.35 4.3965z" fill="#0b5cff"/><path d="m199.092 51c0 1.4971-.121 2.9651-.35 4.3965-.762 4.7386-4.515 8.4921-9.254 9.2532-1.431.2299-2.899.3503-4.396.3503s-2.965-.1204-4.397-.3503c-4.738-.7611-8.492-4.5146-9.253-9.2532-.23-1.4314-.35-2.8994-.35-4.3965s.12-2.9651.35-4.3965c.761-4.7386 4.515-8.4921 9.253-9.2532 1.432-.2299 2.9-.3503 4.397-.3503s2.965.1204 4.396.3503c4.739.7611 8.492 4.5146 9.254 9.2532.229 1.4314.35 2.8994.35 4.3965z" fill="url(#E)"/><path d="m199.092 51c0 1.4971-.121 2.9651-.351 4.3965-.761 4.7386-4.514 8.4922-9.253 9.2532-1.431.2299-2.899.3503-4.396.3503s-2.965-.1204-4.397-.3503c-4.738-.761-8.492-4.5146-9.253-9.2532-.23-1.4314-.35-2.8994-.35-4.3965 0-1.497.12-2.9651.35-4.3966.761-4.7385 4.515-8.4921 9.253-9.2532 1.432-.2299 2.9-.3502 4.397-.3502s2.965.1203 4.396.3502c4.739.7611 8.492 4.5147 9.253 9.2532.23 1.4315.351 2.8995.351 4.3966z" fill="url(#F)"/><g clip-path="url(#ad)"><path clip-rule="evenodd" d="m192.697 49.5524c.214-.0583.395-.262.395-.4838v-2.3186c0-.8284-.672-1.5-1.5-1.5h-2v1.75c0 .2761-.224.5-.5.5s-.5-.2239-.5-.5v-1.75h-10c-.829 0-1.5.6716-1.5 1.5v2.3186c0 .2218.181.4255.395.4838.637.1733 1.105.7558 1.105 1.4474 0 .6915-.468 1.2739-1.105 1.4473-.214.0583-.395.262-.395.4837v2.3192c0 .8284.671 1.5 1.5 1.5h10v-1.75c0-.2761.224-.5.5-.5s.5.2239.5.5v1.75h2c.828 0 1.5-.6716 1.5-1.5v-2.3192c0-.2217-.181-.4253-.395-.4836-.637-.1735-1.105-.7559-1.105-1.4474 0-.6916.468-1.2741 1.105-1.4474zm-6.251 1.2162-.824.8027c-.118.115-.171.2805-.143.4426l.194 1.1337c.056.3268-.287.576-.58.4217l-1.019-.5354c-.145-.0764-.319-.0764-.465 0l-1.018.5354c-.293.1543-.636-.0949-.58-.4217l.194-1.1337c.028-.1621-.026-.3276-.144-.4426l-.823-.8027c-.238-.2315-.107-.6348.221-.6824l1.139-.1654c.162-.0236.303-.1259.376-.2736l.509-1.0315c.147-.2971.571-.2971.718 0l.509 1.0315c.072.1477.213.25.376.2736l1.138.1654c.328.0476.459.4509.222.6824zm3.146 1.7312c0 .2761-.224.5002-.5.5002s-.5-.2239-.5-.5v-3.0002c0-.2762.224-.5.5-.5s.5.2238.5.5z" fill="#fff" fill-rule="evenodd"/></g><path d="m199 267c0 1.497-.12 2.965-.35 4.397-.761 4.738-4.515 8.492-9.254 9.253-1.431.23-2.899.35-4.396.35s-2.965-.12-4.396-.35c-4.739-.761-8.493-4.515-9.254-9.253-.23-1.432-.35-2.9-.35-4.397s.12-2.965.35-4.397c.761-4.738 4.515-8.492 9.254-9.253 1.431-.23 2.899-.35 4.396-.35s2.965.12 4.396.35c4.739.761 8.493 4.515 9.254 9.253.23 1.432.35 2.9.35 4.397z" fill="#0b5cff"/><path d="m199 267c0 1.497-.12 2.965-.35 4.397-.761 4.738-4.515 8.492-9.254 9.253-1.431.23-2.899.35-4.396.35s-2.965-.12-4.396-.35c-4.739-.761-8.493-4.515-9.254-9.253-.23-1.432-.35-2.9-.35-4.397s.12-2.965.35-4.397c.761-4.738 4.515-8.492 9.254-9.253 1.431-.23 2.899-.35 4.396-.35s2.965.12 4.396.35c4.739.761 8.493 4.515 9.254 9.253.23 1.432.35 2.9.35 4.397z" fill="url(#G)"/><path d="m199 267c0 1.497-.12 2.965-.35 4.396-.761 4.739-4.515 8.493-9.254 9.254-1.431.23-2.899.35-4.396.35s-2.965-.12-4.397-.35c-4.738-.761-8.492-4.515-9.253-9.254-.23-1.431-.35-2.899-.35-4.396s.12-2.965.35-4.397c.761-4.738 4.515-8.492 9.253-9.253 1.432-.23 2.9-.35 4.397-.35s2.965.12 4.396.35c4.739.761 8.493 4.515 9.254 9.253.23 1.432.35 2.9.35 4.397z" fill="url(#H)"/><g clip-path="url(#ae)"><path d="m189.5 260h-.25v2c0 .828-.672 1.5-1.5 1.5s-1.5-.672-1.5-1.5v-2h-2.5v2c0 .828-.672 1.5-1.5 1.5s-1.5-.672-1.5-1.5v-2h-.25c-1.657 0-3 1.343-3 3v8c0 1.657 1.343 3 3 3h9c1.657 0 3-1.343 3-3v-8c0-1.657-1.343-3-3-3zm2 11c0 1.105-.896 2-2 2h-9c-1.104 0-2-.895-2-2v-4.5c0-1.104.896-2 2-2h9c1.104 0 2 .896 2 2zm-3.896-2.486-.823.803c-.118.115-.172.28-.144.442l.194 1.134c.056.327-.287.576-.58.422l-1.018-.536c-.146-.076-.32-.076-.466 0l-1.018.536c-.293.154-.636-.095-.58-.422l.194-1.134c.028-.162-.026-.327-.144-.442l-.823-.803c-.238-.231-.107-.635.222-.682l1.138-.166c.163-.023.303-.125.376-.273l.509-1.032c.147-.297.571-.297.718 0l.509 1.032c.073.148.213.25.376.273l1.139.166c.328.047.459.451.221.682zm.146-6.014c-.276 0-.5-.224-.5-.5v-3c0-.276.224-.5.5-.5s.5.224.5.5v3c0 .276-.224.5-.5.5zm-5.5 0c-.276 0-.5-.224-.5-.5v-3c0-.276.224-.5.5-.5s.5.224.5.5v3c0 .276-.224.5-.5.5z" fill="#fff"/></g><path d="m271.092 51c0 1.4971-.121 2.9651-.35 4.3965-.762 4.7386-4.515 8.4921-9.254 9.2532-1.431.2299-2.899.3503-4.396.3503s-2.965-.1204-4.397-.3503c-4.738-.7611-8.492-4.5146-9.253-9.2532-.23-1.4314-.35-2.8994-.35-4.3965s.12-2.9651.35-4.3965c.761-4.7386 4.515-8.4921 9.253-9.2532 1.432-.2299 2.9-.3503 4.397-.3503s2.965.1204 4.396.3503c4.739.7611 8.492 4.5146 9.254 9.2532.229 1.4314.35 2.8994.35 4.3965z" fill="#0b5cff"/><path d="m271.092 51c0 1.4971-.121 2.9651-.35 4.3965-.762 4.7386-4.515 8.4921-9.254 9.2532-1.431.2299-2.899.3503-4.396.3503s-2.965-.1204-4.397-.3503c-4.738-.7611-8.492-4.5146-9.253-9.2532-.23-1.4314-.35-2.8994-.35-4.3965s.12-2.9651.35-4.3965c.761-4.7386 4.515-8.4921 9.253-9.2532 1.432-.2299 2.9-.3503 4.397-.3503s2.965.1204 4.396.3503c4.739.7611 8.492 4.5146 9.254 9.2532.229 1.4314.35 2.8994.35 4.3965z" fill="url(#I)"/><path d="m271.092 51c0 1.4971-.121 2.9651-.351 4.3965-.761 4.7386-4.514 8.4922-9.253 9.2532-1.431.2299-2.899.3503-4.396.3503s-2.965-.1204-4.397-.3503c-4.738-.761-8.492-4.5146-9.253-9.2532-.23-1.4314-.35-2.8994-.35-4.3965 0-1.497.12-2.9651.35-4.3966.761-4.7385 4.515-8.4921 9.253-9.2532 1.432-.2299 2.9-.3502 4.397-.3502s2.965.1203 4.396.3502c4.739.7611 8.492 4.5147 9.253 9.2532.23 1.4315.351 2.8995.351 4.3966z" fill="url(#J)"/><g clip-path="url(#af)"><path d="m265.092 50.4998c0-1.2941-.992-2.3488-2.253-2.475-.74-2.0358-3.035-3.5248-5.747-3.5248-2.707 0-5.001 1.4824-5.745 3.5116-1.264.124-2.255 1.1924-2.255 2.4882 0 1.3789 1.121 2.5 2.5 2.5.276 0 .5-.2237.5-.5v-3.0644c0-2.1699 2.243-3.9354 5-3.9354s5 1.7655 5 3.9354v3.0644c0 1.592-1.383 2.9242-3.257 3.347-.183-.2087-.444-.3467-.743-.3467h-1c-.552 0-1 .4476-1 .9999s.448 1 1 1h1c.432 0 .791-.277.931-.6603 2.168-.4792 3.811-2.0132 4.041-3.8876 1.153-.2216 2.028-1.235 2.028-2.4523zm-7 3.0002c1.657 0 3-1.343 3-2.9999 0-1.6567-1.343-2.9999-3-2.9999h-2c-1.657 0-3 1.3432-3 2.9999 0 .885.39 1.6723 1 2.2213v1.7775c0 .4455.538.6686.853.3537l1.353-1.3526z" fill="#fff"/></g><path d="m271 123c0 1.497-.12 2.965-.35 4.397-.761 4.738-4.515 8.492-9.254 9.253-1.431.23-2.899.35-4.396.35s-2.965-.12-4.396-.35c-4.739-.761-8.493-4.515-9.254-9.253-.23-1.432-.35-2.9-.35-4.397s.12-2.965.35-4.397c.761-4.738 4.515-8.492 9.254-9.253 1.431-.23 2.899-.35 4.396-.35s2.965.12 4.396.35c4.739.761 8.493 4.515 9.254 9.253.23 1.432.35 2.9.35 4.397z" fill="#0b5cff"/><path d="m271 123c0 1.497-.12 2.965-.35 4.397-.761 4.738-4.515 8.492-9.254 9.253-1.431.23-2.899.35-4.396.35s-2.965-.12-4.396-.35c-4.739-.761-8.493-4.515-9.254-9.253-.23-1.432-.35-2.9-.35-4.397s.12-2.965.35-4.397c.761-4.738 4.515-8.492 9.254-9.253 1.431-.23 2.899-.35 4.396-.35s2.965.12 4.396.35c4.739.761 8.493 4.515 9.254 9.253.23 1.432.35 2.9.35 4.397z" fill="url(#K)"/><path d="m271 123c0 1.497-.12 2.965-.35 4.396-.761 4.739-4.515 8.493-9.254 9.254-1.431.23-2.899.35-4.396.35s-2.965-.12-4.397-.35c-4.738-.761-8.492-4.515-9.253-9.254-.23-1.431-.35-2.899-.35-4.396s.12-2.965.35-4.397c.761-4.738 4.515-8.492 9.253-9.253 1.432-.23 2.9-.35 4.397-.35s2.965.12 4.396.35c4.739.761 8.493 4.515 9.254 9.253.23 1.432.35 2.9.35 4.397z" fill="url(#L)"/><g clip-path="url(#ag)"><path d="m264 122.5c0-3.866-3.134-7-7-7s-7 3.134-7 7 3.134 7 7 7v1.493c0 .339.334.592.653.48 3.692-1.299 6.341-4.827 6.346-8.961 0-.004.001-.008.001-.012zm-6.999 4c-1.345 0-2.51-.771-3.077-1.895-.227-.45.279-.91.711-.649.691.416 1.5.655 2.366.655.865 0 1.674-.239 2.365-.655.432-.261.938.199.711.649-.567 1.124-1.732 1.895-3.076 1.895z" fill="#fff"/></g><path d="m271.092 195c0 1.497-.121 2.965-.35 4.397-.762 4.738-4.515 8.492-9.254 9.253-1.431.23-2.899.35-4.396.35s-2.965-.12-4.397-.35c-4.738-.761-8.492-4.515-9.253-9.253-.23-1.432-.35-2.9-.35-4.397s.12-2.965.35-4.397c.761-4.738 4.515-8.492 9.253-9.253 1.432-.23 2.9-.35 4.397-.35s2.965.12 4.396.35c4.739.761 8.492 4.515 9.254 9.253.229 1.432.35 2.9.35 4.397z" fill="#0b5cff"/><path d="m271.092 195c0 1.497-.121 2.965-.35 4.397-.762 4.738-4.515 8.492-9.254 9.253-1.431.23-2.899.35-4.396.35s-2.965-.12-4.397-.35c-4.738-.761-8.492-4.515-9.253-9.253-.23-1.432-.35-2.9-.35-4.397s.12-2.965.35-4.397c.761-4.738 4.515-8.492 9.253-9.253 1.432-.23 2.9-.35 4.397-.35s2.965.12 4.396.35c4.739.761 8.492 4.515 9.254 9.253.229 1.432.35 2.9.35 4.397z" fill="url(#M)"/><path d="m271.092 195c0 1.497-.121 2.965-.351 4.396-.761 4.739-4.514 8.493-9.253 9.254-1.431.23-2.899.35-4.396.35s-2.965-.12-4.397-.35c-4.738-.761-8.492-4.515-9.253-9.254-.23-1.431-.35-2.899-.35-4.396s.12-2.965.35-4.397c.761-4.738 4.515-8.492 9.253-9.253 1.432-.23 2.9-.35 4.397-.35s2.965.12 4.396.35c4.739.761 8.492 4.515 9.253 9.253.23 1.432.351 2.9.351 4.397z" fill="url(#N)"/><g clip-path="url(#ah)"><path d="m260.592 188h-8c-1.105 0-2 .895-2 2v10c0 1.104.895 2 2 2h2.317c.34-.561.941-1.018 1.74-1.305-.499-.498-.808-1.186-.808-1.945 0-1.516 1.234-2.75 2.751-2.75.795 0 1.512.339 2.014.88.375-.745 1.119-1.255 1.986-1.344v-5.536c0-1.105-.896-2-2-2zm-6 9h-1.5c-.276 0-.5-.224-.5-.5s.224-.5.5-.5h1.5c.276 0 .5.224.5.5s-.224.5-.5.5zm3-2.5h-4.5c-.276 0-.5-.224-.5-.5s.224-.5.5-.5h4.5c.276 0 .5.224.5.5s-.224.5-.5.5zm-.751 4.25c0-.966.784-1.75 1.751-1.75.966 0 1.749.784 1.749 1.75s-.783 1.75-1.749 1.75c-.967 0-1.751-.784-1.751-1.75zm6.001.75c.828 0 1.499-.672 1.499-1.5s-.671-1.5-1.499-1.5c-.829 0-1.501.672-1.501 1.5s.672 1.5 1.501 1.5zm0 .75c-.868 0-1.606.209-2.102.532.908.378 1.527.985 1.751 1.718h2.315c.38 0 .786-.336.786-.75 0-.828-1.178-1.5-2.75-1.5zm-4.484 3.087-.642-1.672c-.045-.117-.173-.187-.295-.158-1.094.264-1.829.884-1.829 1.614 0 .486.443.879.857.879h4.286c.414 0 .857-.393.857-.879 0-.731-.736-1.351-1.831-1.614-.121-.03-.249.04-.294.157l-.643 1.673c-.082.215-.384.215-.466 0zm1.734-11.337h-7c-.276 0-.5-.224-.5-.5s.224-.5.5-.5h7c.276 0 .5.224.5.5s-.224.5-.5.5z" fill="#fff"/></g><path d="m199 195c0 1.497-.12 2.965-.35 4.397-.761 4.738-4.515 8.492-9.254 9.253-1.431.23-2.899.35-4.396.35s-2.965-.12-4.396-.35c-4.739-.761-8.493-4.515-9.254-9.253-.23-1.432-.35-2.9-.35-4.397s.12-2.965.35-4.397c.761-4.738 4.515-8.492 9.254-9.253 1.431-.23 2.899-.35 4.396-.35s2.965.12 4.396.35c4.739.761 8.493 4.515 9.254 9.253.23 1.432.35 2.9.35 4.397z" fill="#0b5cff"/><path d="m199 195c0 1.497-.12 2.965-.35 4.397-.761 4.738-4.515 8.492-9.254 9.253-1.431.23-2.899.35-4.396.35s-2.965-.12-4.396-.35c-4.739-.761-8.493-4.515-9.254-9.253-.23-1.432-.35-2.9-.35-4.397s.12-2.965.35-4.397c.761-4.738 4.515-8.492 9.254-9.253 1.431-.23 2.899-.35 4.396-.35s2.965.12 4.396.35c4.739.761 8.493 4.515 9.254 9.253.23 1.432.35 2.9.35 4.397z" fill="url(#O)"/><path d="m199 195c0 1.497-.12 2.965-.35 4.396-.761 4.739-4.515 8.493-9.254 9.254-1.431.23-2.899.35-4.396.35s-2.965-.12-4.397-.35c-4.738-.761-8.492-4.515-9.253-9.254-.23-1.431-.35-2.899-.35-4.396s.12-2.965.35-4.397c.761-4.738 4.515-8.492 9.253-9.253 1.432-.23 2.9-.35 4.397-.35s2.965.12 4.396.35c4.739.761 8.493 4.515 9.254 9.253.23 1.432.35 2.9.35 4.397z" fill="url(#P)"/><g clip-path="url(#ai)"><path clip-rule="evenodd" d="m191 188h-12c-1.105 0-2 .895-2 2v10c0 1.104.895 2 2 2h12c1.105 0 2-.896 2-2v-10c0-1.105-.895-2-2-2zm-7.5 2.75c0-.414.336-.75.75-.75h1.5c.414 0 .75.336.75.75v.5c0 .414-.336.75-.75.75h-1.5c-.414 0-.75-.336-.75-.75zm-4.5 0c0-.414.336-.75.75-.75h1.5c.414 0 .75.336.75.75v.5c0 .414-.336.75-.75.75h-1.5c-.414 0-.75-.336-.75-.75zm12 8.5c0 .414-.336.75-.75.75h-10.5c-.414 0-.75-.336-.75-.75v-5.5c0-.414.336-.75.75-.75h10.5c.414 0 .75.336.75.75zm0-8c0 .414-.336.75-.75.75h-1.5c-.414 0-.75-.336-.75-.75v-.5c0-.414.336-.75.75-.75h1.5c.414 0 .75.336.75.75z" fill="#fff" fill-rule="evenodd"/></g></svg>